<svg id="Layer_1" data-name="Layer 1" xmlns="http://www.w3.org/2000/svg" xmlns:xlink="http://www.w3.org/1999/xlink" viewBox="0 0 909.24 927.88"><defs><style>.cls-1{fill:#5e34a9;}.cls-2{fill:url(#linear-gradient);}.cls-3{fill:#fff;}.cls-4{fill:#babed2;}</style><linearGradient id="linear-gradient" x1="1603.13" y1="-71.89" x2="1603.13" y2="814.69" gradientTransform="matrix(1, 0, 0, -1, -642.75, 872)" gradientUnits="userSpaceOnUse"><stop offset="0" stop-color="#824ee3"/><stop offset="1" stop-color="#8d5de8"/></linearGradient></defs><path class="cls-1" d="M953.33,57.37c214.49,3.67,458.27,188.71,461.43,458.5C1417.7,773,1200.84,984,959.7,985.19,769.47,986.1,595.83,856.25,531.84,675c-69.78-197.4,8.81-404.65,147.63-518C717.67,125.87,817.57,55.1,953.33,57.37Z" transform="translate(-505.76 -57.31)"/><path class="cls-2" d="M953.42,57.37c261.76-4,481.12,227.35,460.2,481.39-18.42,223.75-218,401-445.36,405.06-229,4.1-436.16-168.6-460.19-394.32C481.15,296.22,693.5,61.43,953.42,57.37Z" transform="translate(-505.76 -57.31)"/><path class="cls-3" d="M967,172C1158.5,175.59,1312.19,340,1307.35,530.4,1302.54,717,1146.71,870.17,961.66,870.76c-198.18.65-359.22-174-347.79-370.07C624.46,319,780.21,168.4,967,172Z" transform="translate(-505.76 -57.31)"/><path class="cls-4" d="M613.87,534.22C624.46,352.54,780.21,202,967,205.5c182.88,3.49,331.19,153.56,340,332.8.14-2.66.34-5.29.42-7.95C1312.25,340,1158.5,175.59,967,171.91c-186.76-3.56-342.51,147-353.1,328.7a337.24,337.24,0,0,0-.12,37.08C613.81,536.55,613.79,535.39,613.87,534.22Z" transform="translate(-505.76 -57.31)"/></svg>