<svg id="Layer_1" data-name="Layer 1" xmlns="http://www.w3.org/2000/svg" xmlns:xlink="http://www.w3.org/1999/xlink" viewBox="0 0 466.07 475.62"><defs><style>.cls-1{fill:#2a45c4;}.cls-2{fill:url(#linear-gradient);}.cls-3{fill:#fff;}.cls-4{fill:#babed2;}</style><linearGradient id="linear-gradient" x1="943.78" y1="708.45" x2="943.78" y2="254" gradientUnits="userSpaceOnUse"><stop offset="0" stop-color="#4665f4"/><stop offset="1" stop-color="#5859f4"/></linearGradient></defs><path class="cls-1" d="M940.17,254c109.92,1.88,234.91,96.73,236.52,235,1.55,131.78-109.65,240-233.26,240.57-97.51.47-186.51-66.09-219.31-159-35.74-101.2,4.51-207.41,75.68-265.53C819.37,289.11,870.58,252.84,940.17,254Z" transform="translate(-710.75 -254)"/><path class="cls-2" d="M940.21,254c134.17-2.07,246.62,116.54,235.9,246.76-9.45,114.69-111.73,205.57-228.29,207.63-117.4,2.07-223.57-86.46-235.89-202.2C698.12,376.43,807,256.08,940.21,254Z" transform="translate(-710.75 -254)"/><path class="cls-3" d="M947.16,312.73c98.18,1.87,177,86.15,174.47,183.72-2.46,95.66-82.34,174.16-177.19,174.47-101.59.33-184.13-89.18-178.28-189.69C771.59,388.1,851.43,310.91,947.16,312.73Z" transform="translate(-710.75 -254)"/><path class="cls-4" d="M766.16,498.43c5.43-93.13,85.27-170.31,181-168.49,93.74,1.78,169.77,78.7,174.26,170.58.07-1.36.18-2.71.21-4.07,2.51-97.57-76.29-181.85-174.47-183.72-95.73-1.82-175.57,75.37-181,168.5a172.1,172.1,0,0,0,0,19C766.13,499.63,766.13,499,766.16,498.43Z" transform="translate(-710.75 -254)"/></svg>