<svg id="Layer_1" data-name="Layer 1" xmlns="http://www.w3.org/2000/svg" xmlns:xlink="http://www.w3.org/1999/xlink" viewBox="0 0 618.94 631.62"><defs><style>.cls-1{fill:#9f1631;}.cls-2{fill:url(#linear-gradient);}.cls-3{fill:#fff;}.cls-4{fill:#babed2;}</style><linearGradient id="linear-gradient" x1="952.21" y1="813.51" x2="952.21" y2="210" gradientUnits="userSpaceOnUse"><stop offset="0" stop-color="#db2e4c"/><stop offset="1" stop-color="#df405d"/></linearGradient></defs><path class="cls-1" d="M947.42,210c146,2.5,311.95,128.46,314.1,312.11,2,175-145.62,318.67-309.77,319.47-129.49.62-247.69-87.77-291.25-211.13C613,496.08,666.5,355,761,277.85,787,256.63,855,208.46,947.42,210Z" transform="translate(-642.75 -210)"/><path class="cls-2" d="M947.48,210c178.18-2.75,327.5,154.76,313.26,327.69-12.54,152.31-148.38,273-303.16,275.73C801.67,816.21,660.68,698.65,644.32,545,626,372.59,770.55,212.77,947.48,210Z" transform="translate(-642.75 -210)"/><path class="cls-3" d="M956.7,288c130.38,2.48,235,114.39,231.7,244-3.27,127-109.35,231.29-235.31,231.69-134.91.44-244.53-118.42-236.75-251.91C723.55,388.08,829.57,285.58,956.7,288Z" transform="translate(-642.75 -210)"/><path class="cls-4" d="M716.34,534.6c7.21-123.67,113.23-226.17,240.36-223.76,124.49,2.37,225.45,104.53,231.42,226.54.09-1.81.23-3.6.28-5.41,3.34-129.58-101.32-241.49-231.7-244-127.13-2.42-233.15,100.08-240.36,223.75a228.63,228.63,0,0,0-.08,25.24C716.3,536.19,716.29,535.4,716.34,534.6Z" transform="translate(-642.75 -210)"/></svg>