<svg id="Layer_1" data-name="Layer 1" xmlns="http://www.w3.org/2000/svg" xmlns:xlink="http://www.w3.org/1999/xlink" viewBox="0 0 652.25 665.62"><defs><style>.cls-1{fill:#c76c1a;}.cls-2{fill:url(#linear-gradient);}.cls-3{fill:#fff;}.cls-4{fill:#babed2;}</style><linearGradient id="linear-gradient" x1="942.87" y1="843" x2="942.87" y2="207" gradientUnits="userSpaceOnUse"><stop offset="0" stop-color="#ec9e10"/><stop offset="1" stop-color="#eca823"/></linearGradient></defs><path class="cls-1" d="M937.82,207c153.84,2.63,328.75,135.37,331,328.91,2.16,184.42-153.46,335.83-326.45,336.67-136.46.65-261-92.5-306.92-222.5-50-141.64,6.32-290.27,105.92-371.61C768.77,256.14,840.43,205.37,937.82,207Z" transform="translate(-616.75 -207)"/><path class="cls-2" d="M937.88,207C1125.65,204.14,1283,370.13,1268,552.38,1254.79,712.88,1111.64,840.07,948.53,843,784.22,845.84,635.64,722,618.4,560,599.07,378.34,751.43,209.91,937.88,207Z" transform="translate(-616.75 -207)"/><path class="cls-3" d="M947.6,289.19c137.4,2.62,247.69,120.56,244.17,257.11-3.45,133.88-115.23,243.74-248,244.17C801.62,790.93,686.1,665.66,694.3,525,701.9,394.67,813.63,286.65,947.6,289.19Z" transform="translate(-616.75 -207)"/><path class="cls-4" d="M694.3,549.08c7.6-130.34,119.32-238.36,253.3-235.81,131.19,2.5,237.59,110.15,243.88,238.73.09-1.9.24-3.79.29-5.7C1195.29,409.75,1085,291.81,947.6,289.19c-134-2.54-245.7,105.48-253.3,235.81a243.26,243.26,0,0,0-.08,26.59C694.26,550.75,694.25,549.92,694.3,549.08Z" transform="translate(-616.75 -207)"/></svg>