<svg id="Layer_1" data-name="Layer 1" xmlns="http://www.w3.org/2000/svg" xmlns:xlink="http://www.w3.org/1999/xlink" viewBox="0 0 913.4 932.13"><defs><style>.cls-1{fill:#2b8fad;}.cls-2{fill:url(#linear-gradient);}.cls-3{fill:#fff;}.cls-4{fill:#babed2;}</style><linearGradient id="linear-gradient" x1="1621.82" y1="-59.64" x2="1621.82" y2="831" gradientTransform="matrix(1, 0, 0, -1, -642.75, 872)" gradientUnits="userSpaceOnUse"><stop offset="0" stop-color="#3db5ca"/><stop offset="1" stop-color="#50bdd2"/></linearGradient></defs><path class="cls-1" d="M972,41.05c215.46,3.69,460.37,189.58,463.54,460.61,3,258.26-214.9,470.28-457.15,471.47C787.29,974,612.85,843.6,548.57,661.54c-70.1-198.3,8.85-406.5,148.31-520.36C735.25,109.87,835.61,38.78,972,41.05Z" transform="translate(-522.37 -41)"/><path class="cls-2" d="M972.09,41.05C1235,37,1455.4,269.44,1434.39,524.65c-18.51,224.78-219,402.89-447.4,406.92-230.09,4.11-438.16-169.38-462.3-396.13C497.65,281,711,45.14,972.09,41.05Z" transform="translate(-522.37 -41)"/><path class="cls-3" d="M985.69,156.16C1178.1,159.82,1332.5,325,1327.63,516.25c-4.83,187.43-161.38,341.34-347.27,341.93C781.27,858.83,619.49,683.42,631,486.41,641.61,303.86,798.08,152.59,985.69,156.16Z" transform="translate(-522.37 -41)"/><path class="cls-4" d="M631,520.09c10.64-182.51,167.11-333.78,354.72-330.22,183.72,3.5,332.72,154.26,341.53,334.32.13-2.67.34-5.31.41-8C1332.56,325,1178.1,159.82,985.69,156.12,798.08,152.55,641.61,303.82,631,486.33a337.68,337.68,0,0,0-.11,37.24C630.91,522.44,630.9,521.27,631,520.09Z" transform="translate(-522.37 -41)"/></svg>